<?xml version="1.0" encoding="UTF-8" standalone="no"?>
<!-- Created with Inkscape (http://www.inkscape.org/) -->

<svg
   xmlns:dc="http://purl.org/dc/elements/1.1/"
   xmlns:cc="http://creativecommons.org/ns#"
   xmlns:rdf="http://www.w3.org/1999/02/22-rdf-syntax-ns#"
   xmlns:svg="http://www.w3.org/2000/svg"
   xmlns="http://www.w3.org/2000/svg"
   xmlns:sodipodi="http://sodipodi.sourceforge.net/DTD/sodipodi-0.dtd"
   xmlns:inkscape="http://www.inkscape.org/namespaces/inkscape"
   width="4.5155554mm"
   height="4.5155554mm"
   viewBox="0 0 15.999999 15.999999"
   id="svg6376"
   version="1.1"
   inkscape:version="0.91 r13725"
   sodipodi:docname="calendar.svg">
  <defs
     id="defs6378" />
  <sodipodi:namedview
     id="base"
     pagecolor="#ffffff"
     bordercolor="#666666"
     borderopacity="1.0"
     inkscape:pageopacity="0.0"
     inkscape:pageshadow="2"
     inkscape:zoom="7.9195959"
     inkscape:cx="32.758004"
     inkscape:cy="25.187035"
     inkscape:document-units="px"
     inkscape:current-layer="layer1"
     showgrid="false"
     fit-margin-top="0"
     fit-margin-left="0"
     fit-margin-right="0"
     fit-margin-bottom="0"
     inkscape:window-width="1280"
     inkscape:window-height="736"
     inkscape:window-x="0"
     inkscape:window-y="27"
     inkscape:window-maximized="1" />
  <metadata
     id="metadata6381">
    <rdf:RDF>
      <cc:Work
         rdf:about="">
        <dc:format>image/svg+xml</dc:format>
        <dc:type
           rdf:resource="http://purl.org/dc/dcmitype/StillImage" />
        <dc:title></dc:title>
      </cc:Work>
    </rdf:RDF>
  </metadata>
  <g
     inkscape:label="Calque 1"
     inkscape:groupmode="layer"
     id="layer1"
     transform="translate(1022.2857,-847.21935)">
    <g
       transform="translate(-1070.2857,449.21935)"
       id="g11501"
       inkscape:label="accessories-calculator">
      <g
         inkscape:label="accessories-calculator"
         id="g11525">
        <rect
           style="color:#bebebe;display:inline;overflow:visible;visibility:visible;opacity:0.51464431;fill:none;stroke:none;stroke-width:3;marker:none;enable-background:accumulate"
           id="rect11505"
           width="16"
           height="16"
           x="48"
           y="398" />
        <path
           style="display:inline;fill:#000000;fill-opacity:1;stroke:none"
           d="m 50.03125,398 c -0.542165,0 -1,0.32904 -1,0.9375 l 0,14.125 c 0,0.58636 0.376673,0.9375 1,0.9375 l 13.03125,0 C 63.582568,414 64,413.64886 64,413.0625 l 0,-14.125 C 64,398.39533 63.604665,398 63.0625,398 l -13.03125,0 z M 51,400.03125 l 11.03125,0 0,2.96875 L 51,403 51,400.03125 Z M 51.1875,404 l 1.625,0 C 52.9233,404 53,404.0767 53,404.1875 l 0,1.625 C 53,405.9233 52.9233,406 52.8125,406 l -1.625,0 C 51.0767,406 51,405.9233 51,405.8125 l 0,-1.625 C 51,404.0767 51.0767,404 51.1875,404 Z m 3,0 1.625,0 C 55.9233,404 56,404.0767 56,404.1875 l 0,1.625 C 56,405.9233 55.9233,406 55.8125,406 l -1.625,0 C 54.0767,406 54,405.9233 54,405.8125 l 0,-1.625 C 54,404.0767 54.0767,404 54.1875,404 Z m 3,0 1.625,0 C 58.9233,404 59,404.0767 59,404.1875 l 0,1.625 C 59,405.9233 58.9233,406 58.8125,406 l -1.625,0 C 57.0767,406 57,405.9233 57,405.8125 l 0,-1.625 C 57,404.0767 57.0767,404 57.1875,404 Z m 3,0 1.625,0 C 61.9233,404 62,404.0767 62,404.1875 l 0,1.625 C 62,405.9233 61.9233,406 61.8125,406 l -1.625,0 C 60.0767,406 60,405.9233 60,405.8125 l 0,-1.625 C 60,404.0767 60.0767,404 60.1875,404 Z m -9,3 1.625,0 C 52.9233,407 53,407.0767 53,407.1875 l 0,1.625 C 53,408.9233 52.9233,409 52.8125,409 l -1.625,0 C 51.0767,409 51,408.9233 51,408.8125 l 0,-1.625 C 51,407.0767 51.0767,407 51.1875,407 Z m 3,0 1.625,0 C 55.9233,407 56,407.0767 56,407.1875 l 0,1.625 C 56,408.9233 55.9233,409 55.8125,409 l -1.625,0 C 54.0767,409 54,408.9233 54,408.8125 l 0,-1.625 C 54,407.0767 54.0767,407 54.1875,407 Z m 3,0 1.625,0 C 58.9233,407 59,407.0767 59,407.1875 l 0,1.625 C 59,408.9233 58.9233,409 58.8125,409 l -1.625,0 C 57.0767,409 57,408.9233 57,408.8125 l 0,-1.625 C 57,407.0767 57.0767,407 57.1875,407 Z m 3,0 1.625,0 C 61.9233,407 62,407.0767 62,407.1875 l 0,1.625 C 62,408.9233 61.9233,409 61.8125,409 l -1.625,0 C 60.0767,409 60,408.9233 60,408.8125 l 0,-1.625 C 60,407.0767 60.0767,407 60.1875,407 Z m -9,3 1.625,0 C 52.9233,410 53,410.0767 53,410.1875 l 0,1.625 C 53,411.9233 52.9233,412 52.8125,412 l -1.625,0 C 51.0767,412 51,411.9233 51,411.8125 l 0,-1.625 C 51,410.0767 51.0767,410 51.1875,410 Z m 3,0 1.625,0 C 55.9233,410 56,410.0767 56,410.1875 l 0,1.625 C 56,411.9233 55.9233,412 55.8125,412 l -1.625,0 C 54.0767,412 54,411.9233 54,411.8125 l 0,-1.625 C 54,410.0767 54.0767,410 54.1875,410 Z m 3,0 1.625,0 C 58.9233,410 59,410.0767 59,410.1875 l 0,1.625 C 59,411.9233 58.9233,412 58.8125,412 l -1.625,0 C 57.0767,412 57,411.9233 57,411.8125 l 0,-1.625 C 57,410.0767 57.0767,410 57.1875,410 Z m 3,0 1.625,0 C 61.9233,410 62,410.0767 62,410.1875 l 0,1.625 C 62,411.9233 61.9233,412 61.8125,412 l -1.625,0 C 60.0767,412 60,411.9233 60,411.8125 l 0,-1.625 C 60,410.0767 60.0767,410 60.1875,410 Z"
           id="rect5122-3-5"
           inkscape:connector-curvature="0" />
      </g>
    </g>
  </g>
</svg>
