<?xml version="1.0" encoding="UTF-8" standalone="no"?>
<!-- Created with Inkscape (http://www.inkscape.org/) -->

<svg
   xmlns:dc="http://purl.org/dc/elements/1.1/"
   xmlns:cc="http://creativecommons.org/ns#"
   xmlns:rdf="http://www.w3.org/1999/02/22-rdf-syntax-ns#"
   xmlns:svg="http://www.w3.org/2000/svg"
   xmlns="http://www.w3.org/2000/svg"
   xmlns:sodipodi="http://sodipodi.sourceforge.net/DTD/sodipodi-0.dtd"
   xmlns:inkscape="http://www.inkscape.org/namespaces/inkscape"
   width="4.5155559mm"
   height="4.5155554mm"
   viewBox="0 0 16.000001 15.999999"
   id="svg5755"
   version="1.1"
   inkscape:version="0.91 r13725"
   sodipodi:docname="categories.svg">
  <defs
     id="defs5757" />
  <sodipodi:namedview
     id="base"
     pagecolor="#ffffff"
     bordercolor="#666666"
     borderopacity="1.0"
     inkscape:pageopacity="0.0"
     inkscape:pageshadow="2"
     inkscape:zoom="11.2"
     inkscape:cx="1.0226583"
     inkscape:cy="10.233757"
     inkscape:document-units="px"
     inkscape:current-layer="g4958"
     showgrid="false"
     fit-margin-top="0"
     fit-margin-left="0"
     fit-margin-right="0"
     fit-margin-bottom="0"
     inkscape:window-width="1280"
     inkscape:window-height="736"
     inkscape:window-x="0"
     inkscape:window-y="27"
     inkscape:window-maximized="1" />
  <metadata
     id="metadata5760">
    <rdf:RDF>
      <cc:Work
         rdf:about="">
        <dc:format>image/svg+xml</dc:format>
        <dc:type
           rdf:resource="http://purl.org/dc/dcmitype/StillImage" />
        <dc:title></dc:title>
      </cc:Work>
    </rdf:RDF>
  </metadata>
  <g
     inkscape:label="Calque 1"
     inkscape:groupmode="layer"
     id="layer1"
     transform="translate(-120.57143,-378.64792)">
    <g
       id="g4958"
       inkscape:label="folder"
       transform="translate(-87.428372,-617.35208)"
       style="display:inline">
      <path
         sodipodi:nodetypes="ccccccccccsccccccccccc"
         id="rect3845"
         d="m 208.53105,997 c -0.28913,0 -0.53125,0.24212 -0.53125,0.53125 l 0,13.93755 c 0,0.2985 0.23264,0.5312 0.53125,0.5312 l 14.9375,0 c 0.2986,0 0.53125,-0.2326 0.53125,-0.5312 l 0,-8.9376 c 0,-0.2891 -0.24212,-0.5312 -0.53125,-0.5312 l -12.46875,0 0,7.5 c 0,0.277 -0.223,0.5 -0.5,0.5 -0.277,0 -0.5,-0.223 -0.5,-0.5 l 0,-8 c 0,-0.277 0.223,-0.5 0.5,-0.5 l 2.96875,0 8.53125,0 0,-1.4062 c 0,-0.3272 -0.26666,-0.5938 -0.59375,-0.5938 l -7.40625,0 0,-1.46875 C 213.9998,997.2421 213.75768,997 213.46855,997 Z"
         style="display:inline;fill:#000000;fill-opacity:1;stroke:none"
         inkscape:connector-curvature="0" />
      <rect
         y="996"
         x="207.9998"
         height="16"
         width="16"
         id="rect14152"
         style="color:#bebebe;display:inline;overflow:visible;visibility:visible;fill:none;stroke:none;stroke-width:2;marker:none;enable-background:accumulate" />
    </g>
  </g>
</svg>
