<?xml version="1.0" encoding="UTF-8" standalone="no"?>
<!-- Created with Inkscape (http://www.inkscape.org/) -->

<svg
   xmlns:dc="http://purl.org/dc/elements/1.1/"
   xmlns:cc="http://creativecommons.org/ns#"
   xmlns:rdf="http://www.w3.org/1999/02/22-rdf-syntax-ns#"
   xmlns:svg="http://www.w3.org/2000/svg"
   xmlns="http://www.w3.org/2000/svg"
   xmlns:sodipodi="http://sodipodi.sourceforge.net/DTD/sodipodi-0.dtd"
   xmlns:inkscape="http://www.inkscape.org/namespaces/inkscape"
   width="4.5155554mm"
   height="4.5155554mm"
   viewBox="0 0 15.999999 15.999999"
   id="svg5978"
   version="1.1"
   inkscape:version="0.91 r13725"
   sodipodi:docname="management.svg">
  <defs
     id="defs5980" />
  <sodipodi:namedview
     id="base"
     pagecolor="#ffffff"
     bordercolor="#666666"
     borderopacity="1.0"
     inkscape:pageopacity="0.0"
     inkscape:pageshadow="2"
     inkscape:zoom="11.2"
     inkscape:cx="1.5715057"
     inkscape:cy="2.2879563"
     inkscape:document-units="px"
     inkscape:current-layer="layer1"
     showgrid="false"
     fit-margin-top="0"
     fit-margin-left="0"
     fit-margin-right="0"
     fit-margin-bottom="0"
     inkscape:window-width="1280"
     inkscape:window-height="736"
     inkscape:window-x="0"
     inkscape:window-y="27"
     inkscape:window-maximized="1" />
  <metadata
     id="metadata5983">
    <rdf:RDF>
      <cc:Work
         rdf:about="">
        <dc:format>image/svg+xml</dc:format>
        <dc:type
           rdf:resource="http://purl.org/dc/dcmitype/StillImage" />
        <dc:title></dc:title>
      </cc:Work>
    </rdf:RDF>
  </metadata>
  <g
     inkscape:label="Calque 1"
     inkscape:groupmode="layer"
     id="layer1"
     transform="translate(-149.14286,-327.21935)">
    <g
       transform="translate(-111.85734,-215.78065)"
       id="g11487"
       inkscape:label="text-editor">
      <path
         inkscape:connector-curvature="0"
         sodipodi:nodetypes="cccccc"
         id="path2273-6-2"
         d="m 266.00201,553 6.99819,-7 c 1,0 2,1 2,2 l -7,7 -2,0 z"
         style="fill:#000000;fill-opacity:1;fill-rule:evenodd;stroke:none" />
      <path
         inkscape:connector-curvature="0"
         sodipodi:nodetypes="ccccc"
         id="path4113-1-6-3"
         d="m 274.0002,545 c 1,0 2,1 2,2 l 1,-1 c 0,-1 -0.75185,-2 -2,-2 z"
         style="display:inline;overflow:visible;visibility:visible;fill:#000000;fill-opacity:1;fill-rule:nonzero;stroke:none;stroke-width:1;marker:none;enable-background:new" />
      <rect
         transform="translate(241.0002,217)"
         y="326"
         x="20"
         height="16"
         width="16"
         id="rect10446"
         style="fill:none;stroke:none" />
      <path
         sodipodi:nodetypes="ccccccccccsccccccccccc"
         inkscape:connector-curvature="0"
         id="path6682-6"
         transform="translate(241.0002,217)"
         d="m 21.09375,326 c -0.56869,5e-5 -1.0937,0.50285 -1.09375,1.0625 l 0,12.84375 0,0.25 0,0.78125 c 5e-5,0.55965 0.52506,1.06245 1.09375,1.0625 l 4.34375,0 1.125,0 5.34375,0 c 0.55754,-5e-5 1.07398,-0.48468 1.09375,-1.03125 3.9e-4,-0.0109 0,-0.0204 0,-0.0312 L 33,334 l -2,2 0,4 -9,0 0,-12 5,0 2,2 1.53125,-1.53125 -2.1875,-2.125 C 28.14329,326.13538 27.85406,326.00215 27.5625,326 Z"
         style="color:#000000;font-style:normal;font-variant:normal;font-weight:normal;font-stretch:normal;font-size:medium;line-height:normal;font-family:Sans;-inkscape-font-specification:Sans;text-indent:0;text-align:start;text-decoration:none;text-decoration-line:none;letter-spacing:normal;word-spacing:normal;text-transform:none;direction:ltr;block-progression:tb;writing-mode:lr-tb;baseline-shift:baseline;text-anchor:start;display:inline;overflow:visible;visibility:visible;fill:#000000;fill-opacity:1;stroke:none;stroke-width:2;marker:none;enable-background:accumulate" />
    </g>
  </g>
</svg>
