<?xml version="1.0" encoding="UTF-8" standalone="no"?>
<!-- Created with Inkscape (http://www.inkscape.org/) -->

<svg
   xmlns:dc="http://purl.org/dc/elements/1.1/"
   xmlns:cc="http://creativecommons.org/ns#"
   xmlns:rdf="http://www.w3.org/1999/02/22-rdf-syntax-ns#"
   xmlns:svg="http://www.w3.org/2000/svg"
   xmlns="http://www.w3.org/2000/svg"
   xmlns:sodipodi="http://sodipodi.sourceforge.net/DTD/sodipodi-0.dtd"
   xmlns:inkscape="http://www.inkscape.org/namespaces/inkscape"
   width="4.5155554mm"
   height="4.5155554mm"
   viewBox="0 0 15.999999 15.999999"
   id="svg6036"
   version="1.1"
   inkscape:version="0.91 r13725"
   sodipodi:docname="roles.svg">
  <defs
     id="defs6038" />
  <sodipodi:namedview
     id="base"
     pagecolor="#ffffff"
     bordercolor="#666666"
     borderopacity="1.0"
     inkscape:pageopacity="0.0"
     inkscape:pageshadow="2"
     inkscape:zoom="11.2"
     inkscape:cx="23.269249"
     inkscape:cy="5.7340883"
     inkscape:document-units="px"
     inkscape:current-layer="layer1"
     showgrid="false"
     fit-margin-top="0"
     fit-margin-left="0"
     fit-margin-right="0"
     fit-margin-bottom="0"
     inkscape:window-width="1280"
     inkscape:window-height="736"
     inkscape:window-x="0"
     inkscape:window-y="27"
     inkscape:window-maximized="1" />
  <metadata
     id="metadata6041">
    <rdf:RDF>
      <cc:Work
         rdf:about="">
        <dc:format>image/svg+xml</dc:format>
        <dc:type
           rdf:resource="http://purl.org/dc/dcmitype/StillImage" />
        <dc:title></dc:title>
      </cc:Work>
    </rdf:RDF>
  </metadata>
  <g
     inkscape:label="Calque 1"
     inkscape:groupmode="layer"
     id="layer1"
     transform="translate(-272,-458.64792)">
    <g
       id="g9203"
       inkscape:label="system-users"
       transform="translate(290.9996,-190.35208)">
      <g
         transform="translate(-0.49981,0)"
         id="g9188"
         style="display:inline">
        <g
           id="g9172">
          <path
             style="fill:#000000;fill-opacity:1;stroke:none"
             d="m -5.2115283,658.6875 c -0.4937891,0.47964 -1.0774305,0.69712 -1.7882906,0.69712 -0.7108599,0 -1.2972314,-0.22349 -1.7910205,-0.70313 -0.7765701,0.27945 -1.7052286,0.99058 -1.7062566,2.23257 l -0.0027,2.3167 c -5.15e-4,0.42615 0.31219,0.76924 0.6999914,0.76924 l 5.600024,0 c 0.3878016,0 0.7000029,-0.34309 0.7000029,-0.76924 l 0,-2.30769 c 0,-1.0667 -0.7716202,-1.96599 -1.7117243,-2.23557 z"
             id="path9137"
             inkscape:connector-curvature="0"
             sodipodi:nodetypes="csccsssscc" />
          <circle
             r="2.5"
             cy="342.5"
             cx="49.5"
             transform="matrix(0.92307481,0,0,0.92307481,-52.69199,340.15457)"
             id="path9139"
             style="color:#bebebe;display:inline;overflow:visible;visibility:visible;fill:#000000;fill-opacity:1;fill-rule:nonzero;stroke:none;stroke-width:2;marker:none;enable-background:accumulate" />
        </g>
        <g
           id="g9176">
          <path
             sodipodi:nodetypes="csccssccccc"
             inkscape:connector-curvature="0"
             id="path9178"
             d="m -12.21155,654.6875 c -0.493789,0.47964 -1.077431,0.69712 -1.788291,0.69712 -0.71086,0 -1.297231,-0.22349 -1.79102,-0.70313 -0.77657,0.27945 -1.705229,0.99058 -1.706257,2.23257 l -0.0027,2.3167 c -5.15e-4,0.42615 0.31219,0.76924 0.699991,0.76924 l 5.735381,0 c 0.06219,-0.3952 0.261624,-0.72266 0.564646,-1 l 0,-2.07693 c 0,-1.0667 -0.77162,-1.96599 -1.711724,-2.23557 z"
             style="fill:#000000;fill-opacity:1;stroke:none" />
          <circle
             r="2.5"
             cy="342.5"
             cx="49.5"
             style="color:#bebebe;display:inline;overflow:visible;visibility:visible;fill:#000000;fill-opacity:1;fill-rule:nonzero;stroke:none;stroke-width:2;marker:none;enable-background:accumulate"
             id="path9180"
             transform="matrix(0.92307481,0,0,0.92307481,-59.692012,336.15457)" />
        </g>
      </g>
      <rect
         inkscape:label="a"
         y="649"
         x="-18.999603"
         height="16"
         width="16"
         id="rect9125"
         style="color:#bebebe;display:inline;overflow:visible;visibility:visible;fill:none;stroke:none;stroke-width:1;marker:none" />
    </g>
  </g>
</svg>
