<?xml version="1.0" encoding="UTF-8" standalone="no"?>
<!-- Created with Inkscape (http://www.inkscape.org/) -->

<svg
   xmlns:dc="http://purl.org/dc/elements/1.1/"
   xmlns:cc="http://creativecommons.org/ns#"
   xmlns:rdf="http://www.w3.org/1999/02/22-rdf-syntax-ns#"
   xmlns:svg="http://www.w3.org/2000/svg"
   xmlns="http://www.w3.org/2000/svg"
   xmlns:sodipodi="http://sodipodi.sourceforge.net/DTD/sodipodi-0.dtd"
   xmlns:inkscape="http://www.inkscape.org/namespaces/inkscape"
   width="4.5155554mm"
   height="4.5155578mm"
   viewBox="0 0 15.999999 16.000008"
   id="svg6097"
   version="1.1"
   inkscape:version="0.91 r13725"
   sodipodi:docname="settings.svg">
  <defs
     id="defs6099" />
  <sodipodi:namedview
     id="base"
     pagecolor="#ffffff"
     bordercolor="#666666"
     borderopacity="1.0"
     inkscape:pageopacity="0.0"
     inkscape:pageshadow="2"
     inkscape:zoom="11.2"
     inkscape:cx="11.472982"
     inkscape:cy="-1.3045761"
     inkscape:document-units="px"
     inkscape:current-layer="layer1"
     showgrid="false"
     fit-margin-top="0"
     fit-margin-left="0"
     fit-margin-right="0"
     fit-margin-bottom="0"
     inkscape:window-width="1280"
     inkscape:window-height="736"
     inkscape:window-x="0"
     inkscape:window-y="27"
     inkscape:window-maximized="1" />
  <metadata
     id="metadata6102">
    <rdf:RDF>
      <cc:Work
         rdf:about="">
        <dc:format>image/svg+xml</dc:format>
        <dc:type
           rdf:resource="http://purl.org/dc/dcmitype/StillImage" />
        <dc:title></dc:title>
      </cc:Work>
    </rdf:RDF>
  </metadata>
  <g
     inkscape:label="Calque 1"
     inkscape:groupmode="layer"
     id="layer1"
     transform="translate(-123.42857,-301.50506)">
    <g
       style="display:inline"
       id="g4948"
       transform="matrix(0.99983741,0,0,0.99709409,83.434873,-404.39106)"
       inkscape:label="preferences-system">
      <path
         inkscape:connector-curvature="0"
         id="path3908"
         d="m 43.549718,708.04419 c -0.399396,0 -0.786509,0.0919 -1.143474,0.21635 l 1.885188,1.88519 c 0.387409,0.3874 0.387409,1.00329 0,1.39071 l -0.710808,0.71081 c -0.387409,0.3874 -1.003305,0.3874 -1.390714,0 l -1.885188,-1.88519 c -0.12446,0.35695 -0.216334,0.74407 -0.216334,1.14347 0,1.91164 1.549691,3.46132 3.46133,3.46132 0.399396,0 0.786511,-0.0919 1.143476,-0.21633 l 1.17438,1.17438 a 2.4726259,2.4726259 0 0 1 0.0618,0 l 2.070622,-2.07061 -1.205284,-1.20529 c 0.124458,-0.35695 0.216332,-0.74407 0.216332,-1.14347 0,-1.91164 -1.549689,-3.46134 -3.46133,-3.46134 z m 6.551804,7.91162 -2.070618,2.07061 a 2.4726259,2.4726259 0 0 1 0.03091,0.0927 l 1.143474,1.14347 c -0.124458,0.357 -0.216332,0.74412 -0.216332,1.14352 0,1.91164 1.549689,3.46134 3.46133,3.46134 0.433532,0 0.853742,-0.1017 1.236188,-0.24724 l -2.008806,-2.00881 c -0.387409,-0.38742 -0.387409,-1.0342 0,-1.42162 l 0.679904,-0.6799 c 0.193705,-0.19371 0.458013,-0.30906 0.710808,-0.30906 0.252795,0 0.517105,0.11535 0.71081,0.30906 l 1.946998,1.94699 c 0.104867,-0.33054 0.185428,-0.6855 0.185428,-1.05076 0,-1.91164 -1.549691,-3.46132 -3.46133,-3.46132 -0.399396,0 -0.786511,0.0919 -1.143476,0.21633 l -1.205286,-1.2053 z"
         style="color:#000000;font-style:normal;font-variant:normal;font-weight:normal;font-stretch:normal;font-size:medium;line-height:normal;font-family:Sans;-inkscape-font-specification:Sans;text-indent:0;text-align:start;text-decoration:none;text-decoration-line:none;letter-spacing:normal;word-spacing:normal;text-transform:none;direction:ltr;block-progression:tb;writing-mode:lr-tb;text-anchor:start;display:inline;overflow:visible;visibility:visible;fill:#000000;fill-opacity:1;fill-rule:nonzero;stroke:none;stroke-width:3;marker:none;enable-background:accumulate" />
      <path
         inkscape:connector-curvature="0"
         id="path3910"
         d="m 53.860505,707.95337 -1.542705,1.44172 c -0.451586,0.42201 -0.529293,1.15218 -0.266343,1.71144 l -5.889182,6.01323 a 1.4919155,1.4919127 0 0 0 -0.03108,2.5e-4 1.4919155,1.4919127 0 0 0 -0.840306,-0.14884 1.4919155,1.4919127 0 0 0 -0.866771,0.44188 l -3.94684,4.00899 a 1.4943601,1.4943574 0 1 0 2.129781,2.09677 l 3.946839,-4.00899 a 1.4919155,1.4919127 0 0 0 0.297178,-1.74277 l 5.889423,-5.98216 c 0.557911,0.2491 1.273451,0.1474 1.707079,-0.29305 l 1.417423,-1.56504 -2.004499,-1.97343 z"
         style="color:#000000;font-style:normal;font-variant:normal;font-weight:normal;font-stretch:normal;font-size:medium;line-height:normal;font-family:Sans;-inkscape-font-specification:Sans;text-indent:0;text-align:start;text-decoration:none;text-decoration-line:none;letter-spacing:normal;word-spacing:normal;text-transform:none;direction:ltr;block-progression:tb;writing-mode:lr-tb;text-anchor:start;display:inline;overflow:visible;visibility:visible;fill:#000000;fill-opacity:1;fill-rule:nonzero;stroke:none;stroke-width:3;marker:none;enable-background:accumulate" />
      <rect
         style="color:#000000;display:inline;overflow:visible;visibility:visible;fill:none;stroke:none;stroke-width:1;marker:none;enable-background:new"
         id="rect4445"
         width="16"
         height="16"
         x="201"
         y="245"
         transform="matrix(1.0001626,0,0,1.0029144,-161.03248,462.23935)" />
    </g>
  </g>
</svg>
