<?xml version="1.0" encoding="UTF-8" standalone="no"?>
<!-- Created with Inkscape (http://www.inkscape.org/) -->

<svg
   xmlns:dc="http://purl.org/dc/elements/1.1/"
   xmlns:cc="http://creativecommons.org/ns#"
   xmlns:rdf="http://www.w3.org/1999/02/22-rdf-syntax-ns#"
   xmlns:svg="http://www.w3.org/2000/svg"
   xmlns="http://www.w3.org/2000/svg"
   xmlns:sodipodi="http://sodipodi.sourceforge.net/DTD/sodipodi-0.dtd"
   xmlns:inkscape="http://www.inkscape.org/namespaces/inkscape"
   width="3.8452778mm"
   height="3.9510829mm"
   viewBox="0 0 13.625 13.9999"
   id="svg5637"
   version="1.1"
   inkscape:version="0.91 r13725"
   sodipodi:docname="system.svg">
  <defs
     id="defs5639" />
  <sodipodi:namedview
     id="base"
     pagecolor="#ffffff"
     bordercolor="#666666"
     borderopacity="1.0"
     inkscape:pageopacity="0.0"
     inkscape:pageshadow="2"
     inkscape:zoom="22.4"
     inkscape:cx="14.84129"
     inkscape:cy="4.388379"
     inkscape:document-units="px"
     inkscape:current-layer="layer1"
     showgrid="false"
     fit-margin-top="0"
     fit-margin-left="0"
     fit-margin-right="0"
     fit-margin-bottom="0"
     inkscape:window-width="1280"
     inkscape:window-height="736"
     inkscape:window-x="0"
     inkscape:window-y="27"
     inkscape:window-maximized="1" />
  <metadata
     id="metadata5642">
    <rdf:RDF>
      <cc:Work
         rdf:about="">
        <dc:format>image/svg+xml</dc:format>
        <dc:type
           rdf:resource="http://purl.org/dc/dcmitype/StillImage" />
        <dc:title></dc:title>
      </cc:Work>
    </rdf:RDF>
  </metadata>
  <g
     inkscape:label="Calque 1"
     inkscape:groupmode="layer"
     id="layer1"
     transform="translate(-198.85735,-507.90688)">
    <path
       sodipodi:nodetypes="sccccccccccsccccccccccsccccccccccsccccccccccssssss"
       inkscape:connector-curvature="0"
       id="path35543-6-4"
       d="m 205.66985,507.90688 c -0.22065,0 -0.44081,0.0113 -0.65625,0.0312 l -0.40625,2.09375 c -0.33446,0.0733 -0.66305,0.17589 -0.96875,0.3125 l -1.53125,-1.46875 c -0.38863,0.23011 -0.72695,0.51408 -1.0625,0.8125 l 0.90625,1.90625 c -0.22242,0.24899 -0.42425,0.5225 -0.59375,0.8125 l -2.09375,-0.28125 c -0.17772,0.40877 -0.30872,0.83637 -0.40625,1.28125 l 1.84375,1 c -0.0171,0.16809 -0.0312,0.3274 -0.0312,0.5 0,0.1726 0.0142,0.33191 0.0312,0.5 l -1.84375,1 c 0.0975,0.44488 0.22853,0.87248 0.40625,1.28125 l 2.09375,-0.28125 c 0.1695,0.29 0.37133,0.56351 0.59375,0.8125 l -0.90625,1.90625 c 0.33555,0.29842 0.67387,0.58239 1.0625,0.8125 l 1.53125,-1.46875 c 0.3057,0.13661 0.63429,0.23916 0.96875,0.3125 l 0.40625,2.09375 c 0.21544,0.02 0.4356,0.0312 0.65625,0.0312 0.22065,0 0.44081,-0.0113 0.65625,-0.0312 l 0.40625,-2.09375 c 0.33446,-0.0733 0.66305,-0.17589 0.96875,-0.3125 l 1.53125,1.46875 c 0.38863,-0.23011 0.72695,-0.51408 1.0625,-0.8125 l -0.90625,-1.90625 c 0.22242,-0.24899 0.42425,-0.5225 0.59375,-0.8125 l 2.09375,0.28125 c 0.17772,-0.40877 0.30872,-0.83637 0.40625,-1.28125 l -1.84375,-1 c 0.0171,-0.16809 0.0312,-0.3274 0.0312,-0.5 0,-0.1726 -0.0142,-0.33191 -0.0312,-0.5 l 1.84375,-1 c -0.0975,-0.44488 -0.22853,-0.87248 -0.40625,-1.28125 l -2.09375,0.28125 c -0.1695,-0.29 -0.37133,-0.56351 -0.59375,-0.8125 l 0.90625,-1.90625 c -0.33555,-0.29842 -0.67387,-0.58239 -1.0625,-0.8125 l -1.53125,1.46875 c -0.3057,-0.13661 -0.63429,-0.23916 -0.96875,-0.3125 l -0.40625,-2.09375 c -0.21544,-0.02 -0.4356,-0.0312 -0.65625,-0.0312 z m 0,4 c 1.65685,0 3,1.34315 3,3 0,1.65685 -1.34315,3 -3,3 -1.65685,0 -3,-1.34315 -3,-3 0,-1.65685 1.34315,-3 3,-3 z"
       style="color:#000000;display:inline;overflow:visible;visibility:visible;fill:#000000;fill-opacity:1;fill-rule:nonzero;stroke:none;marker:none;enable-background:accumulate" />
  </g>
</svg>
